<svg xmlns="http://www.w3.org/2000/svg" viewBox="0 0 159.95 139.07" fill="#DB2D54">
  <g transform="translate(-46.07, -56.57)">
    <path d="M130.1,56.6H122l-75.9,43.8v14l75.9,43.8h8.1l75.9-43.8v-14L130.1,56.6z M185.8,107.4h-59.7V72.9L185.8,107.4z M126.1,141.9l-59.7-34.5L112.1,81v26.4v7v0.8l10.7,6.2h38.8L126.1,141.9z"/>
    <polygon points="46.1,133.1 46.1,151.7 122,195.6 130.1,195.6 206,151.7 206,133.1 126.1,179.2"/>
    <polygon points="194.8,195.6 206,189.1 206,170.4 162.5,195.6"/>
    <polygon points="46.1,189.1 57.3,195.6 89.7,195.6 46.1,170.4"/>
  </g>
</svg>
